<svg width="166" height="49" viewBox="0 0 166 49" fill="none" xmlns="http://www.w3.org/2000/svg">
<g clip-path="url(#clip0_5_949)">
<path d="M24 0.934082C10.7661 0.934082 0 11.7002 0 24.9341C0 38.1679 10.7661 48.9341 24 48.9341C37.2339 48.9341 48 38.1679 48 24.9341C48 11.7002 37.2339 0.934082 24 0.934082ZM47.6932 24.9341C47.6932 25.6136 47.6626 26.2862 47.6067 26.9519C47.2846 28.3353 46.7153 29.6928 45.9286 30.9974C45.8812 30.2445 45.768 29.4655 45.5851 28.6628C45.4022 27.8594 45.1558 27.0567 44.8497 26.2586C46.0128 24.3281 46.7045 22.2827 46.8163 20.2068C47.1338 20.9681 47.3863 21.7517 47.5692 22.5551C47.5723 22.5674 47.5738 22.5796 47.5769 22.5919C47.6526 23.3632 47.6924 24.1444 47.6924 24.9348L47.6932 24.9341ZM44.6363 36.5634C43.5795 38.0386 42.2229 39.4251 40.6275 40.6755C40.893 39.6279 40.9756 38.3944 40.8555 36.9873C42.8825 35.3987 44.5544 33.6067 45.7618 31.6953C45.8047 32.9532 45.6585 34.1293 45.3448 35.2128C45.1229 35.6719 44.8857 36.1218 44.6355 36.5634H44.6363ZM24 48.628C22.1613 48.628 20.3715 48.4176 18.6521 48.0197C18.1364 47.7228 17.6459 47.3081 17.1899 46.7709C19.5956 47.1795 22.2347 47.2667 25.0131 46.9783C25.3513 47.7458 25.6758 48.2615 25.978 48.5224C25.6245 48.5591 25.274 48.5867 24.9259 48.6089C24.6183 48.6211 24.3107 48.6288 24 48.6288V48.628ZM10.1479 44.1448C9.28092 43.2518 8.54787 42.1515 7.9824 40.8461C9.95811 41.9648 12.3003 42.7958 14.9027 43.2794C15.3909 44.597 15.9763 45.669 16.6374 46.4916C14.3074 46.0593 12.2062 45.3224 10.4172 44.3376C10.3269 44.2741 10.2374 44.2098 10.1479 44.1456V44.1448ZM2.45395 34.7851C2.34988 34.4499 2.25576 34.1086 2.17618 33.759C1.9933 32.9555 1.88082 32.1368 1.83491 31.3088C2.92913 32.9723 4.50081 34.4109 6.44515 35.5633C6.5186 36.4172 6.64562 37.249 6.8285 38.0524C7.01138 38.8558 7.244 39.6057 7.52329 40.302C5.96844 39.38 4.65308 38.2751 3.62774 37.0194C3.19847 36.2986 2.80593 35.5533 2.45318 34.7851H2.45395ZM1.6505 30.6064C1.16691 29.8251 0.78814 28.9957 0.522621 28.1241C0.381827 27.0804 0.306839 26.0153 0.306839 24.9333C0.306839 23.5858 0.421617 22.2659 0.638929 20.9788C0.700909 20.7707 0.766715 20.5626 0.838642 20.3568C0.814921 22.2636 1.33219 24.022 2.29402 25.5761C1.83185 27.2572 1.60842 28.9475 1.6505 30.6056V30.6064ZM5.15122 10.5961C6.10847 9.69391 7.26083 8.94326 8.5846 8.36555C7.94032 9.4567 7.56232 10.6121 7.51334 11.7836C6.03883 12.7998 4.75026 13.9537 3.67901 15.2147C3.74405 13.6622 4.23989 12.131 5.08541 10.6825C5.1076 10.6535 5.12979 10.6251 5.15122 10.5961ZM34.7791 3.83796C35.9698 4.62686 36.9515 5.56727 37.6693 6.63317C36.1909 6.01644 34.568 5.59711 32.8409 5.38898C32.2127 4.45622 31.3159 3.65125 30.211 3.0085C31.4269 2.92739 32.5861 3.02763 33.6673 3.30462C34.043 3.47296 34.4142 3.65049 34.7791 3.83796ZM42.2527 9.84465C43.1174 11.3054 43.5887 12.9436 43.588 14.7135C42.405 13.4617 41.0154 12.3346 39.4628 11.3559C39.4628 9.76354 39.0129 8.29668 38.1911 7.00276C39.5348 7.61567 40.7499 8.39386 41.8089 9.32433C41.9596 9.49573 42.1081 9.66866 42.2535 9.84465H42.2527ZM20.1067 13.1441C21.054 13.0324 21.9616 12.8029 22.7956 12.4807C23.6021 14.0968 24.4109 15.8315 25.2029 17.6373C23.7375 18.2035 22.1429 18.6075 20.4786 18.8034C20.3149 16.843 20.1886 14.9392 20.106 13.1449L20.1067 13.1441ZM20.2185 18.8317C18.558 19.0047 16.981 18.9519 15.5432 18.7078C16.036 16.7604 16.6236 14.8696 17.297 13.0898C18.115 13.2291 19.0133 13.2581 19.9583 13.1602C20.0011 14.9591 20.0891 16.8667 20.2185 18.831V18.8317ZM22.9257 12.4294C23.7521 12.0974 24.5035 11.675 25.1455 11.1868C26.5848 12.4539 27.9904 13.8611 29.331 15.3639C28.2024 16.2209 26.8832 16.9632 25.4309 17.5462C24.6091 15.7526 23.7666 14.031 22.9257 12.4287V12.4294ZM25.2457 11.1103C25.8762 10.616 26.3966 10.0581 26.7723 9.46359C28.6493 10.267 30.4681 11.2358 32.1882 12.3369C31.5279 13.3821 30.6143 14.3615 29.5063 15.23C28.1427 13.7448 26.7118 12.3575 25.2457 11.111V11.1103ZM32.6443 12.6322C34.3468 13.7555 35.9468 15.0073 37.4053 16.3533C36.4886 17.8049 35.2191 19.1654 33.6796 20.3721C32.5004 18.7246 31.2195 17.1284 29.8682 15.6271C31.0152 14.7281 31.961 13.7142 32.6443 12.633V12.6322ZM26.8304 9.37024C27.1908 8.77186 27.4058 8.13753 27.4403 7.49324C29.4971 7.76641 31.485 8.23547 33.3613 8.87516C33.3 10.0061 32.9236 11.1202 32.29 12.1723C30.5561 11.0934 28.7227 10.1484 26.8304 9.37024ZM26.3262 9.16746C24.4231 8.41911 22.465 7.84063 20.4916 7.46569C20.5184 7.42208 20.5337 7.3754 20.536 7.32796C22.69 7.14661 24.8233 7.18717 26.8916 7.4259C26.8595 8.02351 26.6605 8.61194 26.3254 9.16746H26.3262ZM20.4878 7.47258C22.4444 7.87507 24.3857 8.48033 26.2734 9.25393C25.9244 9.80563 25.4416 10.3237 24.8562 10.7828C23.384 9.56153 21.8804 8.48415 20.3761 7.59348C20.422 7.55752 20.4603 7.5162 20.4878 7.47258ZM20.3684 7.59884C21.8429 8.51247 23.3182 9.61127 24.7629 10.8539C24.1668 11.3062 23.4697 11.6987 22.7022 12.0071C21.8605 10.427 21.0219 8.97158 20.2047 7.68989C20.2651 7.66541 20.3202 7.6348 20.3677 7.59884H20.3684ZM20.1963 7.69372C20.9745 8.98994 21.7764 10.4606 22.5821 12.0545C21.8077 12.3537 20.9653 12.5672 20.0861 12.6705C20.0111 10.896 19.9797 9.23557 19.9981 7.74193C20.0677 7.73351 20.1343 7.71667 20.1955 7.69295L20.1963 7.69372ZM19.9491 12.6858C19.0722 12.7768 18.2382 12.7493 17.4791 12.6207C18.1678 10.8608 18.9421 9.21567 19.7938 7.73886C19.8535 7.74881 19.92 7.75111 19.9889 7.74422C19.9262 9.24245 19.9147 10.9075 19.9499 12.6865L19.9491 12.6858ZM19.7838 7.73657C18.8947 9.20725 18.0844 10.8455 17.3605 12.5993C16.6091 12.4601 15.9327 12.2198 15.3618 11.8969C16.6711 10.3489 18.0989 8.9272 19.6254 7.68148C19.6706 7.70673 19.7242 7.72586 19.7831 7.73733L19.7838 7.73657ZM17.1707 13.0676C16.4629 14.8413 15.8431 16.726 15.3205 18.668C13.8973 18.404 12.6179 17.9495 11.5374 17.3381C12.5628 15.5728 13.7297 13.8802 15.0175 12.3101C15.6327 12.6582 16.3612 12.9169 17.1707 13.0668V13.0676ZM15.4154 19.2273C16.9037 19.4799 18.5366 19.5342 20.2552 19.3551C20.3914 21.3285 20.5674 23.3532 20.7786 25.3756C18.4723 25.6151 16.2808 25.5432 14.2837 25.2034C14.5599 23.1933 14.9402 21.1839 15.4162 19.2266L15.4154 19.2273ZM20.5253 19.3253C22.2477 19.1225 23.8982 18.7047 25.4148 18.1186C26.203 19.9351 26.972 21.8183 27.7027 23.7159C25.6673 24.5025 23.4521 25.0642 21.1405 25.3358C20.9025 23.3157 20.6952 21.2949 20.5253 19.3253ZM25.6513 18.0252C27.1541 17.4215 28.5199 16.6525 29.6884 15.7656C31.0167 17.2853 32.277 18.8975 33.4378 20.5588C31.8707 21.7486 30.0373 22.7809 28.0203 23.5904C27.2658 21.7012 26.47 19.8295 25.652 18.0245L25.6513 18.0252ZM33.7439 21.0026C34.887 22.673 35.9269 24.3885 36.8329 26.1079C34.9452 27.5411 32.7369 28.7845 30.3074 29.7601C29.6693 27.8915 28.966 25.987 28.2192 24.0947C30.276 23.269 32.1454 22.2161 33.7439 21.0026ZM33.9918 20.8113C35.5619 19.5809 36.8559 18.1936 37.7909 16.7129C39.2241 18.0757 40.5111 19.5296 41.613 21.0408C40.5081 22.7893 38.9792 24.4283 37.1252 25.8814C36.2077 24.172 35.1518 22.4679 33.991 20.8113H33.9918ZM32.7499 12.4623C33.4056 11.3743 33.7959 10.2204 33.8586 9.04963C35.7142 9.71993 37.4542 10.5601 39.0343 11.5457C38.9494 13.1166 38.426 14.6645 37.5461 16.1253C36.0769 14.7962 34.4647 13.5642 32.7491 12.4623H32.7499ZM20.008 7.02036C19.9384 7.02877 19.8726 7.04637 19.8114 7.07009C19.034 5.85039 18.33 4.88702 17.7087 4.17234C18.48 3.86933 19.3201 3.65202 20.1978 3.54413C20.0899 4.44245 20.0249 5.60018 20.008 7.02036ZM19.6186 7.67612C18.0637 8.90577 16.6076 10.3114 15.2731 11.8448C14.7137 11.5128 14.2615 11.0988 13.9462 10.6205C15.6694 9.44599 17.535 8.41911 19.5137 7.57971C19.539 7.6172 19.5742 7.6501 19.6186 7.67612ZM14.9211 12.2542C13.608 13.8091 12.4166 15.4871 11.3691 17.2402C10.3101 16.6119 9.45385 15.8284 8.85777 14.9224C10.2397 13.4777 11.7938 12.1348 13.4917 10.935C13.8315 11.4508 14.3181 11.8969 14.9211 12.2542ZM15.1828 19.1853C14.6778 21.1372 14.2707 23.142 13.9715 25.1483C11.995 24.7818 10.2167 24.1505 8.71621 23.3012C9.41024 21.4341 10.2672 19.587 11.2666 17.8095C12.3845 18.4423 13.7098 18.9128 15.1828 19.186V19.1853ZM14.211 25.7383C16.2472 26.0842 18.4823 26.1584 20.8337 25.9135C21.051 27.9359 21.3027 29.9522 21.5835 31.9087C18.8059 32.1972 16.166 32.11 13.7603 31.7014C13.7993 29.7532 13.9524 27.7484 14.2102 25.7383H14.211ZM21.2033 25.873C23.5608 25.596 25.8188 25.0236 27.8948 24.2209C28.6187 26.1224 29.3012 28.0346 29.9241 29.9093C27.4724 30.8566 24.8042 31.533 22.0197 31.8605C21.7205 29.9063 21.4466 27.8923 21.2025 25.873H21.2033ZM30.0886 30.4067C30.7007 32.2737 31.2509 34.0987 31.7192 35.8318C29.0387 36.8679 26.1219 37.6071 23.078 37.9652C22.7321 36.2022 22.4046 34.3229 22.1008 32.3793C24.9152 32.0488 27.6109 31.3655 30.0886 30.4074V30.4067ZM30.4742 30.2544C32.9289 29.2681 35.161 28.0124 37.0686 26.5639C37.9501 28.2825 38.6946 30.0004 39.2708 31.6746C37.2063 33.2417 34.7922 34.6007 32.137 35.6673C31.6626 33.9372 31.1017 32.1161 30.475 30.2552L30.4742 30.2544ZM37.3647 26.3351C39.2386 24.8667 40.7836 23.2101 41.9 21.4433C42.9682 22.9645 43.8474 24.5392 44.497 26.1347C43.2895 28.0461 41.6176 29.8381 39.5906 31.4267C39.0106 29.7563 38.2577 28.0453 37.3647 26.3351ZM37.9332 16.4803C38.8308 14.9905 39.3641 13.4119 39.4506 11.8104C41.0032 12.8212 42.392 13.9759 43.5734 15.2499C43.4716 17.1422 42.8411 19.007 41.7814 20.7661C40.6726 19.2664 39.3764 17.8263 37.9332 16.4803ZM27.4449 7.3096C27.4449 6.6699 27.2643 6.07995 26.9337 5.56039C28.8543 5.31323 30.7137 5.29181 32.4721 5.48081C33.0521 6.39444 33.3704 7.42973 33.3697 8.55379C31.4919 7.95618 29.5024 7.5338 27.4449 7.3096ZM26.897 7.2545C24.8272 7.0655 22.6923 7.07775 20.5368 7.31266C20.5368 7.26598 20.5238 7.22237 20.4993 7.18411C22.5033 6.4304 24.4912 5.91696 26.4226 5.63002C26.7294 6.11285 26.897 6.65996 26.897 7.25374V7.2545ZM20.4955 7.17875C20.4702 7.14126 20.4342 7.10835 20.3891 7.08234C21.9493 5.91696 23.5072 5.00486 25.0307 4.34068C25.5946 4.66895 26.0522 5.07985 26.3728 5.55579C24.4561 5.86493 22.4834 6.40132 20.4947 7.17875H20.4955ZM20.3822 7.07851C20.3371 7.05326 20.2827 7.03489 20.2231 7.02418C21.113 5.6216 22.0228 4.48148 22.931 3.59922C23.6863 3.73466 24.3665 3.97033 24.9412 4.29018C23.4437 4.96966 21.9133 5.89707 20.3814 7.07851H20.3822ZM20.2139 7.02265C20.1534 7.0127 20.0876 7.01117 20.018 7.01883C20.0792 5.59405 20.1871 4.43097 20.3348 3.52806C21.214 3.43164 22.0495 3.4546 22.8124 3.57932C21.9386 4.4677 21.0655 5.61471 20.2139 7.02342V7.02265ZM20.2269 3.31074C19.2811 3.42705 18.3759 3.66196 17.5449 3.98793C16.9381 3.31763 16.4132 2.89678 15.9786 2.71849C17.4385 2.14537 19.0286 1.7337 20.6906 1.52863C20.4993 1.86455 20.3424 2.45756 20.2276 3.31074H20.2269ZM19.8007 7.07315C19.7402 7.09764 19.6851 7.12901 19.6385 7.16498C18.1678 6.33169 16.795 5.74173 15.5378 5.3821C16.1293 4.92681 16.8233 4.53121 17.587 4.21978C18.2435 4.91993 18.9842 5.86875 19.7999 7.07315H19.8007ZM19.6316 7.17033C19.5857 7.20706 19.5482 7.24762 19.5206 7.29123C17.5732 6.97062 15.7383 6.87727 14.0442 6.98745C14.387 6.43423 14.8652 5.9139 15.4468 5.45326C16.7308 5.79224 18.1326 6.36 19.6316 7.17033ZM19.5168 7.29812C19.4908 7.3425 19.4755 7.38841 19.4739 7.43585C17.3352 7.69984 15.3159 8.17196 13.4458 8.81854C13.4711 8.22093 13.6639 7.63097 13.9922 7.07392C15.7023 6.93772 17.5533 7.00505 19.5168 7.29735V7.29812ZM19.4732 7.4435C19.4732 7.49095 19.4854 7.5338 19.5091 7.57205C17.5151 8.38698 15.635 9.3909 13.8973 10.5433C13.5966 10.0581 13.4351 9.50874 13.4428 8.91266C15.3136 8.23776 17.3345 7.73733 19.4732 7.4435ZM13.4389 10.8532C11.7264 12.0315 10.1593 13.3538 8.76595 14.7793C8.19665 13.8603 7.89134 12.8205 7.90512 11.6926C9.4133 10.6772 11.1051 9.80104 12.9492 9.0963C12.9416 9.73829 13.1153 10.3305 13.4389 10.8532ZM11.0929 17.7077C10.0706 19.473 9.19369 21.3079 8.48283 23.165C7.01138 22.2927 5.82229 21.2046 4.99436 19.9451C5.96691 18.3298 7.14299 16.7703 8.49354 15.3081C9.11105 16.2462 9.99713 17.0573 11.0929 17.7069V17.7077ZM8.29766 23.6601C7.61588 25.521 7.10167 27.3995 6.77647 29.2467C5.0043 28.1961 3.57188 26.8853 2.57408 25.3687C3.07145 23.6799 3.80297 22.0027 4.73955 20.3766C5.58431 21.6606 6.79713 22.7701 8.29689 23.6601H8.29766ZM6.97771 29.9009C8.80421 30.9354 10.9689 31.7029 13.3747 32.1498C13.341 34.0842 13.4252 35.9581 13.6379 37.7173C11.0347 37.2344 8.69326 36.4034 6.71755 35.284C6.60354 33.5592 6.69689 31.748 6.97771 29.9001V29.9009ZM13.3861 31.6348C11.0056 31.1933 8.86389 30.4327 7.05653 29.4096C7.37025 27.5556 7.86992 25.6687 8.53486 23.7978C10.0652 24.664 11.878 25.3075 13.8934 25.6817C13.6134 27.6872 13.4412 29.6897 13.3861 31.6348ZM13.7527 32.2171C16.1836 32.6303 18.8511 32.7183 21.6585 32.426C21.9447 34.3711 22.26 36.2527 22.5997 38.0164C19.5627 38.3325 16.6764 38.2368 14.0465 37.7899C13.8284 36.0293 13.7335 34.1546 13.7527 32.2171ZM22.69 38.4817C22.8614 39.3532 23.0397 40.1942 23.2226 40.9976C23.4055 41.801 23.5876 42.5417 23.7689 43.2205C20.7212 43.5372 17.825 43.4416 15.1858 42.9932C14.9532 42.3129 14.7443 41.5715 14.5615 40.768C14.3786 39.9646 14.2278 39.1244 14.1077 38.2544C16.7468 38.7028 19.643 38.7985 22.6908 38.4817H22.69ZM23.7054 40.944C23.5225 40.1406 23.3435 39.2997 23.169 38.4281C26.2236 38.0692 29.1505 37.327 31.8408 36.2879C32.0681 37.1464 32.2739 37.9805 32.4568 38.7839C32.6397 39.5874 32.7935 40.3349 32.919 41.0274C30.2286 42.0673 27.3018 42.8088 24.2472 43.1677C24.0689 42.4882 23.8883 41.7475 23.7054 40.944ZM32.9833 41.3901C33.2151 42.7346 33.3352 43.8548 33.3506 44.7455C30.8729 45.7027 28.1764 46.386 25.362 46.7173C25.0384 45.9032 24.6956 44.8381 24.3413 43.5235C27.3859 43.1654 30.3021 42.4262 32.9833 41.3901ZM33.3521 44.9766C33.349 45.8259 33.2419 46.4449 33.0376 46.8268C30.9616 47.6287 28.7036 48.201 26.3461 48.4788C26.0706 48.2148 25.7683 47.6968 25.4477 46.9278C28.2322 46.6003 30.8997 45.9246 33.3521 44.9766ZM32.8792 38.6171C32.6963 37.8137 32.489 36.9796 32.2594 36.1226C34.9245 35.0521 37.3471 33.6886 39.4185 32.1161C39.6909 32.9494 39.9212 33.7704 40.1041 34.5739C40.2869 35.3773 40.417 36.1379 40.4974 36.8549C38.426 38.4273 36.0034 39.7909 33.3383 40.8614C33.2151 40.1681 33.0628 39.4198 32.88 38.6171H32.8792ZM40.4285 34.3237C40.2456 33.5202 40.0145 32.6999 39.7398 31.8682C41.7745 30.2743 43.4517 28.4754 44.6638 26.5578C44.9683 27.3574 45.2147 28.1609 45.3976 28.9643C45.5805 29.7678 45.6945 30.5459 45.7427 31.2966C44.5307 33.2149 42.8534 35.0131 40.8187 36.607C40.7407 35.8885 40.6114 35.1263 40.4285 34.3237ZM42.0706 21.1648C43.1418 19.3865 43.7792 17.5026 43.8818 15.5897C45.0273 16.8843 45.9616 18.2969 46.641 19.802C46.5293 21.8711 45.8407 23.9095 44.6814 25.8332C44.0295 24.2424 43.1449 22.6745 42.0698 21.1648H42.0706ZM39.0451 11.0973C37.4634 10.1454 35.7226 9.34346 33.8663 8.71524C33.8663 7.55139 33.5373 6.48014 32.9366 5.53437C34.6758 5.76086 36.3103 6.19702 37.7978 6.8283C38.6035 8.09774 39.0458 9.53628 39.0451 11.0973ZM32.378 5.33695C30.6326 5.16708 28.7862 5.20917 26.8794 5.47775C26.5335 4.96507 26.0407 4.52203 25.4332 4.16852C26.9498 3.54719 28.4289 3.17225 29.8368 3.03681C30.9043 3.65814 31.7704 4.43556 32.378 5.33695ZM25.3375 4.11419C24.7177 3.76985 23.9847 3.51505 23.1713 3.36966C24.0796 2.53332 24.984 1.9556 25.8632 1.63346C27.2926 1.8898 28.5796 2.33666 29.6685 2.94116C28.2827 3.08961 26.8281 3.47832 25.3375 4.11419ZM23.0435 3.34747C22.2217 3.2128 21.3211 3.18831 20.3738 3.29238C20.5284 2.43537 20.7227 1.83776 20.9492 1.49726C22.6127 1.31514 24.1951 1.35876 25.639 1.59444C24.7897 1.92193 23.9174 2.50501 23.0435 3.34747ZM17.4141 4.03843C16.5907 4.37435 15.8439 4.80056 15.2057 5.29104C13.9692 4.97196 12.8513 4.88167 11.8703 5.00869C12.9905 4.14709 14.3036 3.39874 15.7498 2.80878C16.215 2.97483 16.7721 3.38267 17.4141 4.0392V4.03843ZM15.107 5.36832C14.4811 5.86569 13.9661 6.42504 13.5966 7.02189C11.9269 7.1688 10.4004 7.51849 9.04295 8.04876C9.69259 7.00123 10.597 6.0172 11.6966 5.14413C12.7005 4.99951 13.8437 5.0699 15.107 5.36832ZM13.5399 7.11524C13.1857 7.71514 12.9783 8.35025 12.9507 8.99453C11.1074 9.67249 9.41636 10.5234 7.90894 11.5143C7.95639 10.3826 8.32138 9.26694 8.94347 8.21251C10.3132 7.66005 11.855 7.28664 13.5399 7.11447V7.11524ZM7.50722 11.9657C7.49268 13.1334 7.80947 14.2093 8.39866 15.1604C7.03587 16.6035 5.84983 18.1461 4.86734 19.7469C4.0769 18.4706 3.65222 17.0259 3.67135 15.4588C4.74338 14.1794 6.03271 13.0041 7.50722 11.965V11.9657ZM4.61023 20.1746C3.66447 21.7854 2.9253 23.4512 2.42104 25.13C1.46915 23.5927 0.957245 21.8527 0.980966 19.9657C1.54414 18.4989 2.35753 17.1001 3.39053 15.8024C3.37064 17.4001 3.80373 18.8731 4.61023 20.1746ZM2.44706 25.8171C3.45557 27.3498 4.9033 28.6743 6.69383 29.7364C6.4023 31.5782 6.30053 33.384 6.40995 35.1064C4.4725 33.9579 2.90617 32.5247 1.81578 30.8666C1.7714 29.2046 1.99101 27.5074 2.44706 25.8171ZM7.1384 38.2307C6.95552 37.4272 6.82774 36.5947 6.75199 35.74C8.73458 36.8625 11.0845 37.6966 13.6968 38.1817C13.8146 39.0517 13.9638 39.8911 14.1467 40.6953C14.3296 41.4988 14.54 42.2402 14.7749 42.9213C12.1626 42.4361 9.81272 41.6029 7.83013 40.4796C7.55313 39.784 7.32128 39.0349 7.1384 38.2315V38.2307ZM15.3113 43.3498C17.9413 43.7966 20.8268 43.8923 23.8646 43.5763C24.2257 44.8901 24.58 45.9537 24.9213 46.7663C22.1138 47.0586 19.4464 46.9699 17.0154 46.5574C16.3688 45.7371 15.7942 44.6674 15.3121 43.3505L15.3113 43.3498ZM33.3628 46.6952C33.5885 46.3034 33.7148 45.679 33.7331 44.8266C36.1626 43.851 38.3702 42.6083 40.2586 41.1744C40.0834 41.7911 39.8393 42.3359 39.534 42.8073C37.7022 44.4019 35.6224 45.7188 33.3628 46.6952ZM33.7354 44.5932C33.7354 43.6972 33.626 42.5723 33.3995 41.2256C36.0555 40.159 38.4696 38.8 40.5333 37.2329C40.6581 38.6362 40.5838 39.8636 40.329 40.9019C38.4207 42.3504 36.1894 43.6069 33.7347 44.5924L33.7354 44.5932ZM46.8316 19.6153C46.8316 19.1722 46.8017 18.7384 46.7489 18.3114C47.0298 19.2755 47.2517 20.2649 47.4093 21.2757C47.2501 20.711 47.0581 20.157 46.8316 19.6161V19.6153ZM46.6571 19.2151C45.9769 17.7176 45.0418 16.3212 43.8963 15.0471C43.8963 13.376 43.4808 11.8211 42.7141 10.4201C44.3753 12.558 45.6784 14.9859 46.5347 17.6151C46.6143 18.137 46.6579 18.6703 46.6579 19.2159L46.6571 19.2151ZM41.4003 8.87057C40.4086 8.0457 39.2876 7.35168 38.0587 6.79998C37.4167 5.84733 36.5704 4.99262 35.5535 4.25422C37.7389 5.48004 39.7115 7.04255 41.4003 8.87057ZM30.0365 2.90902C28.9094 2.2831 27.5772 1.82017 26.0974 1.55541C26.3116 1.48731 26.5236 1.43681 26.734 1.40008C29.038 1.66636 31.2432 2.26321 33.2993 3.14393C32.2739 2.9029 31.1805 2.82179 30.0365 2.90979V2.90902ZM25.8655 1.51562C24.5792 1.3052 23.1858 1.24398 21.7243 1.35111C22.4735 1.27918 23.2325 1.24169 24 1.24169C24.821 1.24169 25.6329 1.28377 26.4333 1.36565C26.2451 1.40314 26.0561 1.45211 25.8655 1.51562ZM15.6258 2.77052C15.6258 2.77052 15.6281 2.77052 15.6297 2.77129C14.133 3.38191 12.774 4.15704 11.614 5.04848C11.3446 5.09515 11.0875 5.16019 10.8404 5.24054C12.3256 4.24503 13.9294 3.41328 15.6258 2.77052ZM11.4349 5.18927C10.2963 6.09295 9.35973 7.11141 8.6879 8.19568C7.43453 8.72748 6.33726 9.4215 5.41597 10.2548C6.88742 8.39616 8.63128 6.76326 10.5863 5.41577C10.8564 5.32165 11.1388 5.24436 11.4357 5.18927H11.4349ZM3.39895 15.5522C2.36595 16.8315 1.55256 18.215 0.990148 19.6696C0.9978 19.486 1.01234 19.3023 1.02994 19.1187C1.74539 16.2929 2.97044 13.6683 4.60029 11.3475C3.88025 12.6996 3.4594 14.1167 3.39895 15.5514V15.5522ZM0.846294 20.0583C0.81033 20.1762 0.776662 20.2871 0.744524 20.3942C0.781253 20.2075 0.819512 20.0224 0.860067 19.8372C0.855476 19.9106 0.849354 19.9849 0.846294 20.0583ZM1.66734 31.0464C1.71248 31.8728 1.8242 32.6908 2.00708 33.4942C2.05911 33.7215 2.11726 33.9449 2.17924 34.1668C1.46609 32.488 0.942707 30.7097 0.632807 28.8602C0.89144 29.6239 1.23807 30.3539 1.66657 31.0464H1.66734ZM7.67556 40.6678C8.21272 41.9013 8.90215 42.9542 9.71478 43.8242C7.48121 42.1308 5.55524 40.0518 4.03788 37.6866C5.02114 38.8191 6.24696 39.8207 7.67556 40.6678ZM16.8149 46.7036C17.261 47.2193 17.7408 47.6226 18.2451 47.9194C15.7023 47.2828 13.3203 46.2345 11.1763 44.8488C12.8298 45.6866 14.7313 46.3172 16.8149 46.7043V46.7036ZM39.8454 42.5326C40.14 42.0696 40.378 41.5424 40.5525 40.9494C41.9612 39.846 43.1809 38.6339 44.171 37.3492C42.9804 39.2775 41.5212 41.0228 39.8454 42.5326ZM45.947 31.3945C46.6594 30.2123 47.1935 28.9857 47.5264 27.7362C47.2348 30.1955 46.5668 32.5408 45.5797 34.7116C45.8567 33.6809 45.9853 32.5722 45.9478 31.3945H45.947Z" fill="#04D7F3"/>
</g>
<path d="M67.12 32.9341V21.4321H61.36V19.9741H74.32V21.4321H68.578V32.9341H67.12ZM90.2102 32.9341L85.9802 27.8941H87.8882L92.1362 32.9161V32.9341H90.2102ZM79.2662 32.9341V19.9921H90.0662C90.4622 19.9921 90.8222 20.0941 91.1462 20.2981C91.4822 20.4901 91.7462 20.7481 91.9382 21.0721C92.1302 21.3961 92.2262 21.7561 92.2262 22.1521V25.9501C92.2262 26.3461 92.1302 26.7061 91.9382 27.0301C91.7462 27.3541 91.4822 27.6181 91.1462 27.8221C90.8222 28.0141 90.4622 28.1101 90.0662 28.1101H80.7242V32.9341H79.2662ZM81.4262 26.6341H90.0662C90.2582 26.6341 90.4202 26.5681 90.5522 26.4361C90.6962 26.3041 90.7682 26.1421 90.7682 25.9501V22.1521C90.7682 21.9601 90.6962 21.7981 90.5522 21.6661C90.4202 21.5221 90.2582 21.4501 90.0662 21.4501H81.4262C81.2342 21.4501 81.0662 21.5221 80.9222 21.6661C80.7902 21.7981 80.7242 21.9601 80.7242 22.1521V25.9501C80.7242 26.1421 80.7902 26.3041 80.9222 26.4361C81.0662 26.5681 81.2342 26.6341 81.4262 26.6341ZM97.7377 32.9341V28.0741C97.7377 27.6661 97.8337 27.3001 98.0257 26.9761C98.2177 26.6401 98.4757 26.3761 98.7997 26.1841C99.1357 25.9921 99.5077 25.8961 99.9157 25.8961H108.646C108.838 25.8961 109 25.8301 109.132 25.6981C109.276 25.5541 109.348 25.3861 109.348 25.1941V22.1521C109.348 21.9601 109.276 21.7981 109.132 21.6661C109 21.5221 108.838 21.4501 108.646 21.4501H99.9157C99.7237 21.4501 99.5557 21.5221 99.4117 21.6661C99.2797 21.7981 99.2137 21.9601 99.2137 22.1521V22.6561H97.7377V22.1521C97.7377 21.7441 97.8337 21.3781 98.0257 21.0541C98.2177 20.7181 98.4757 20.4541 98.7997 20.2621C99.1357 20.0581 99.5077 19.9561 99.9157 19.9561H108.646C109.042 19.9561 109.402 20.0581 109.726 20.2621C110.062 20.4541 110.326 20.7181 110.518 21.0541C110.722 21.3781 110.824 21.7441 110.824 22.1521V25.1941C110.824 25.5901 110.722 25.9561 110.518 26.2921C110.326 26.6161 110.062 26.8801 109.726 27.0841C109.402 27.2761 109.042 27.3721 108.646 27.3721H99.9157C99.7237 27.3721 99.5557 27.4441 99.4117 27.5881C99.2797 27.7201 99.2137 27.8821 99.2137 28.0741V30.7561C99.2137 30.9481 99.2797 31.1161 99.4117 31.2601C99.5557 31.3921 99.7237 31.4581 99.9157 31.4581H110.824V32.9341H97.7377ZM118.457 32.9341C118.049 32.9341 117.677 32.8381 117.341 32.6461C117.017 32.4421 116.759 32.1781 116.567 31.8541C116.375 31.5181 116.279 31.1521 116.279 30.7561V22.1701C116.279 21.7621 116.375 21.3961 116.567 21.0721C116.759 20.7361 117.017 20.4721 117.341 20.2801C117.677 20.0761 118.049 19.9741 118.457 19.9741H127.187C127.583 19.9741 127.943 20.0761 128.267 20.2801C128.603 20.4721 128.867 20.7361 129.059 21.0721C129.263 21.3961 129.365 21.7621 129.365 22.1701V30.7561C129.365 31.1521 129.263 31.5181 129.059 31.8541C128.867 32.1781 128.603 32.4421 128.267 32.6461C127.943 32.8381 127.583 32.9341 127.187 32.9341H118.457ZM117.935 31.4581H127.187C127.379 31.4581 127.541 31.3921 127.673 31.2601C127.817 31.1161 127.889 30.9481 127.889 30.7561V23.2501L117.935 31.4581ZM117.755 29.6761L127.691 21.4681H118.457C118.265 21.4681 118.097 21.5401 117.953 21.6841C117.821 21.8161 117.755 21.9781 117.755 22.1701V29.6761ZM143.009 32.9341V29.5861H133.973V27.9301L142.829 19.9561H144.485V28.1101H146.501V29.5861H144.485V32.9341H143.009ZM135.863 28.1101H143.009V21.9541L135.863 28.1101ZM151.639 32.9341V28.0741C151.639 27.6661 151.735 27.3001 151.927 26.9761C152.119 26.6401 152.377 26.3761 152.701 26.1841C153.037 25.9921 153.409 25.8961 153.817 25.8961H162.547C162.739 25.8961 162.901 25.8301 163.033 25.6981C163.177 25.5541 163.249 25.3861 163.249 25.1941V22.1521C163.249 21.9601 163.177 21.7981 163.033 21.6661C162.901 21.5221 162.739 21.4501 162.547 21.4501H153.817C153.625 21.4501 153.457 21.5221 153.313 21.6661C153.181 21.7981 153.115 21.9601 153.115 22.1521V22.6561H151.639V22.1521C151.639 21.7441 151.735 21.3781 151.927 21.0541C152.119 20.7181 152.377 20.4541 152.701 20.2621C153.037 20.0581 153.409 19.9561 153.817 19.9561H162.547C162.943 19.9561 163.303 20.0581 163.627 20.2621C163.963 20.4541 164.227 20.7181 164.419 21.0541C164.623 21.3781 164.725 21.7441 164.725 22.1521V25.1941C164.725 25.5901 164.623 25.9561 164.419 26.2921C164.227 26.6161 163.963 26.8801 163.627 27.0841C163.303 27.2761 162.943 27.3721 162.547 27.3721H153.817C153.625 27.3721 153.457 27.4441 153.313 27.5881C153.181 27.7201 153.115 27.8821 153.115 28.0741V30.7561C153.115 30.9481 153.181 31.1161 153.313 31.2601C153.457 31.3921 153.625 31.4581 153.817 31.4581H164.725V32.9341H151.639Z" fill="#04D7F3"/>
<defs>
<clipPath id="clip0_5_949">
<rect width="48" height="48" fill="white" transform="translate(0 0.934082)"/>
</clipPath>
</defs>
</svg>
